<svg viewBox="0 0 1024 1024" xmlns="http://www.w3.org/2000/svg">
  <path fill="#3b82f6" d="M841.8 456.4c2.4-12.7 3.6-25.7 3.6-38.7 0-117.5-95.6-213.2-213.1-213.2-65.3 0-125.4 29.9-165.2 78.6-26.6-13.6-56.3-20.9-86.9-20.9-92.2 0-169.4 65.6-187.3 152.7-76.7 33.1-129 109.8-129 195.8 0 117.5 95.6 213.1 213.2 213.1h490.6c105.4 0 191.2-85.8 191.2-191.2-0.1-79.1-48.5-147.2-117.1-176.2z m-74.3 311.5H276.9c-86.9 0-157.3-70.4-157.3-157.3 0-75.9 53.8-139.2 125.3-154 0-1.1-0.2-2.2-0.2-3.3 0-74.7 60.6-135.3 135.4-135.3 41.6 0 78.7 18.8 103.5 48.3 21.3-61.6 79.7-105.9 148.5-105.9 86.9 0 157.3 70.4 157.3 157.3 0 29.1-8 56.2-21.8 79.6 74.7 0.1 135.2 60.6 135.2 135.3 0.1 74.7-60.5 135.3-135.3 135.3z"/>
  <path fill="#3b82f6" d="M767.7 531.3c-0.1 0-0.1 0 0 0-10.3 0-18.6 8.3-18.6 18.6s8.3 18.6 18.6 18.7c35.3 0 64 28.8 64 64.1s-28.7 64.1-64.1 64.1H276.9c-47.4 0-86-38.6-86-86 0-40.6 28.8-76 68.4-84.2 10.1-2.1 16.6-11.9 14.5-22-2.1-10.1-11.9-16.5-22-14.5-56.9 11.8-98.1 62.5-98.1 120.7 0 68 55.3 123.3 123.3 123.3h490.6c55.9 0 101.3-45.5 101.3-101.3 0-56-45.4-101.5-101.2-101.5zM527.3 401.1c9.7 3.3 20.3-1.8 23.7-11.5 12-34.7 44.6-57.9 81.2-57.9 47.4 0 86 38.6 86 86 0 15.1-4.1 30.2-11.9 43.4-5.2 8.9-2.3 20.3 6.6 25.5 3 1.7 6.2 2.6 9.4 2.6 6.4 0 12.6-3.3 16.1-9.2 11.2-19 17.1-40.6 17.1-62.3 0-68-55.3-123.3-123.3-123.3-52.4 0-99.2 33.4-116.4 83-3.3 9.7 1.8 20.3 11.5 23.7zM297.2 470.9h0.3c10.2 0 18.5-8.2 18.6-18.4 0.5-34.8 29.2-63.2 64.1-63.2 18.9 0 36.8 8.3 49 22.9 6.6 7.9 18.4 8.9 26.2 2.3 7.9-6.6 8.9-18.4 2.3-26.3-19.3-23-47.6-36.2-77.5-36.2-55.1 0-100.6 44.8-101.3 100-0.2 10.3 8 18.7 18.3 18.9z"/>
</svg>